<svg width="600" height="600" viewBox="0 0 516 600" fill="none" xmlns="http://www.w3.org/2000/svg">
<path fill-rule="evenodd" clip-rule="evenodd" d="M234.052 13.7852C248.877 5.25155 267.122 5.25154 281.947 13.7852L491.947 134.673C506.828 143.239 516 159.102 516 176.272V423.731C516 440.902 506.828 456.764 491.947 465.331L281.953 586.215C267.128 594.748 248.883 594.748 234.059 586.215L24.053 465.324C9.17189 456.758 0 440.895 0 423.725L0 176.272C0 159.101 9.17187 143.239 24.053 134.672L234.052 13.7852Z" fill="#8074c0"/>
<path fill-rule="evenodd" clip-rule="evenodd" d="M100 201.098C100 196.77 102.302 192.77 106.039 190.606L190.589 141.641C198.641 136.978 208.707 142.807 208.707 152.134L208.707 381.643L118.118 434.105C110.065 438.768 100 432.939 100 423.613L100 201.098ZM319.199 438.377C315.469 440.537 310.875 440.541 307.141 438.389L208.707 381.643L317.812 318.459C321.549 316.295 326.153 316.295 329.89 318.459L409.961 364.83C418.013 369.493 418.013 381.152 409.961 385.815L319.199 438.377Z" fill="#050508"/>
</svg>
