<svg xmlns="http://www.w3.org/2000/svg" width="86" height="100" viewBox="0 0 86 100" fill="none"><path fill-rule="evenodd" clip-rule="evenodd" d="M39.0087 2.29753C41.4795 0.875252 44.5204 0.875253 46.9911 2.29753L81.9912 22.4455C84.4714 23.8732 86 26.517 86 29.3787L86 70.6218C86 73.4836 84.4714 76.1274 81.9912 77.5551L46.9921 97.7025C44.5214 99.1247 41.4805 99.1247 39.0098 97.7025L4.00882 77.554C1.52864 76.1263 0 73.4825 0 70.6208L0 29.3787C0 26.5169 1.52864 23.8731 4.00883 22.4454L39.0087 2.29753Z" fill="#020617"></path><path fill-rule="evenodd" clip-rule="evenodd" d="M16.25 35.4067C16.25 34.6922 16.6312 34.0319 17.25 33.6747L31.25 25.5918C32.5833 24.822 34.25 25.7842 34.25 27.3238L34.25 65.2104L19.25 73.8707C17.9167 74.6405 16.25 73.6782 16.25 72.1386L16.25 35.4067ZM52.5457 74.5758C51.9281 74.9324 51.1674 74.9331 50.5491 74.5778L34.25 65.2104L52.3159 54.7803C52.9347 54.423 53.6971 54.423 54.3159 54.7803L67.5742 62.435C68.9076 63.2048 68.9075 65.1293 67.5742 65.8991L52.5457 74.5758Z" fill="#22C8B4"></path><style>@media (prefers-color-scheme: light) { :root { filter: none; } }
@media (prefers-color-scheme: dark) { :root { filter: none; } }
</style></svg>